<svg xmlns="http://www.w3.org/2000/svg" xmlns:xlink="http://www.w3.org/1999/xlink" id="Layer_1" x="0px" y="0px" viewBox="0 0 1366 164.11" style="enable-background:new 0 0 1366 164.11;" xml:space="preserve"><style type="text/css">	.st0{fill:#001E3D;}	.st1{fill:#5CABF0;}	.st2{fill:#004C9F;}	.st3{fill:#E9E9F1;}</style><g>	<g>		<polygon points="316.26,25.52 289.24,103.33 261.41,25.52 235.12,25.52 278.18,135.59 300.64,135.59 342.26,25.52   "></polygon>		<path d="M424.97,50.21c-10.91,0-18.58,3.37-24.62,10.88l-4.08-10.4h-14.72v84.91h22.96V91.48c0-13.88,5.12-19.61,18.05-19.61h9.96   V50.21H424.97z"></path>		<path d="M486.11,115.15c-8.36,0-13.08-4.72-13.08-12.92v-30.5h23.04V50.68h-23.43V28.52h-4.39l-33.54,35.65v7.67h15.35v33.42   c0,18.84,11.48,30.32,30.16,30.32h16.31v-20.44H486.11z"></path>		<path d="M1355.57,115.15c-8.36,0-13.08-4.72-13.08-12.92v-30.5h23.04V50.68h-23.43V28.52h-4.39l-33.54,35.65v7.67h15.35v33.42   c0,18.84,11.48,30.32,30.16,30.32H1366v-20.44H1355.57z"></path>		<path d="M543.15,137.99c24.01,0,39.83-15.33,39.83-38.25V50.68h-22.96v46.45c0,11.92-6.23,19.28-16.87,19.28   c-10.61,0-17-7.2-17-19.28V50.68h-22.96v49.06C503.19,122.67,519.16,137.99,543.15,137.99z"></path>		<path d="M635.29,116.28c-13.34,0-23.14-9.96-23.14-23.27c0-13.31,9.81-23.27,23.14-23.27s23.12,9.93,23.12,23.27   S648.63,116.28,635.29,116.28z M663.77,50.55l-2.45,8.11c-7.34-6.54-17-10.39-27.9-10.39c-25.54,0-44.54,19.13-44.54,44.73   c0,25.7,19,44.99,44.54,44.99c10.71,0,20.22-3.74,27.52-10.13l1.97,7.6h18V50.55L663.77,50.55z"></path>		<rect x="689.39" y="25.42" width="22.96" height="110.17"></rect>		<path d="M796.69,79.17h-17.5V47.58h17.5c9.45,0,15.77,6.65,15.77,15.8C812.45,72.52,806.13,79.17,796.69,79.17z M797.73,25.52   h-42.36v110.07h23.81v-34.36h18.54c22.1,0,38.85-16.15,38.85-37.85C836.58,41.64,819.8,25.52,797.73,25.52z"></path>		<path d="M884.11,137.99c24.01,0,39.83-15.33,39.83-38.25V50.68h-22.96v46.45c0,11.92-6.23,19.28-16.87,19.28   c-10.61,0-17-7.2-17-19.28V50.68h-22.96v49.06C844.16,122.67,860.13,137.99,884.11,137.99z"></path>		<path d="M977.85,116.28c-13.34,0-23.14-9.99-23.14-23.14c0-13.31,9.81-23.27,23.14-23.27c13.34,0,23.11,9.93,23.11,23.27   C1000.97,106.34,991.19,116.28,977.85,116.28L977.85,116.28z M979.72,48.28c-8.79,0-16.74,2.53-23.3,7V25.42h-22.96v110.17h16.95   l2.72-7.1c7.11,6.01,16.27,9.5,26.59,9.5c25.89,0,44.64-19.16,44.64-44.86C1024.37,67.4,1005.61,48.28,979.72,48.28z"></path>		<rect x="1033" y="25.42" width="22.96" height="110.17"></rect>		<path d="M1066.56,135.59h22.26V53.26h-22.26V135.59z"></path>		<path d="M1144.21,137.99c22.21,0,39.6-14.48,43.6-35.82h-23.11c-3.87,9.08-11.21,14.24-20.49,14.24   c-12.29,0-21.81-10.25-21.81-23.4c0-13.15,9.36-23.14,21.81-23.14c9.15,0,16.8,4.9,20.51,13.25h22.8   c-4.13-20.9-21.2-34.84-43.18-34.84c-25.8,0-45.22,19.16-45.22,44.6S1118.66,137.99,1144.21,137.99L1144.21,137.99z"></path>		<path d="M1265.66,137.99c21.44,0,35.61-11.28,35.61-28.6c0-20.69-17.68-23.62-31.54-26.1c-8.82-1.6-16.07-2.92-16.07-8.58   c0-4.86,4.22-8.13,11.36-8.13c8.01,0,12.74,3.33,12.82,10.08h21.79c-0.09-16.97-13.54-28.38-34.04-28.38   c-20.5,0-34.16,11.09-34.16,27.16c0,20.01,17.25,23.64,30.82,25.9c8.98,1.5,16.34,3.26,16.34,9.06c0,5.67-5.7,8.56-12.08,8.56   c-8.23,0-14.02-3.77-14.14-11.34H1230C1230.11,125.82,1244.35,137.99,1265.66,137.99L1265.66,137.99z"></path>		<polygon points="1066.61,43.47 1089.48,43.47 1089.41,25.42 1066.54,25.42   "></polygon>		<path d="M348.02,135.59h22.26V53.26h-22.26V135.59z"></path>		<polygon points="348.07,43.47 370.94,43.47 370.87,25.42 348,25.42   "></polygon>		<path d="M1198.17,135.59h22.26V53.26h-22.26V135.59z"></path>		<polygon points="1198.22,43.47 1221.09,43.47 1221.02,25.42 1198.15,25.42   "></polygon>	</g>	<g>		<path class="st0" d="M63,55.25H0l53.98,93.07c5.67,9.78,16.12,15.79,27.42,15.79h44.61L95.04,110.6L63,55.25z"></path>		<polygon class="st1" points="95.04,110.6 126.83,55.25 94.71,0 63,55.25   "></polygon>		<polygon class="st2" points="95.04,110.6 126.01,164.11 157.85,109.68 126.83,55.25   "></polygon>		<polygon class="st3" points="157.85,0 94.71,0 126.83,55.25   "></polygon>		<path class="st1" d="M182.15,42.53L157.85,0l-31.03,55.25l31.03,54.43l24.22-41.76C186.62,60.08,186.65,50.4,182.15,42.53z"></path>		<path class="st3" d="M94.71,0H46.3C38.02,0,30.34,4.36,26.1,11.48L0,55.25h63L94.71,0z"></path>	</g></g></svg>