<?xml version="1.0" encoding="utf-8"?>
<!-- License: CC Attribution. Made by Davide Pacilio: https://dribbble.com/Davide86 -->
<svg width="800px" height="800px" viewBox="0 0 64 64" xmlns="http://www.w3.org/2000/svg">
    <g id="microphone" transform="translate(-496 -124)">
        <g id="Group_2" data-name="Group 2">
            <path id="Path_141" data-name="Path 141" d="M510,162a10,10,0,0,0,10,10h16a10,10,0,0,0,10-10v-8H510Z" fill="#1b8cff" opacity="0.3"/>
            <path id="Path_142" data-name="Path 142" d="M536,126H520a10,10,0,0,0-10,10v8h36v-8A10,10,0,0,0,536,126Z" fill="#1b8cff" opacity="0.3"/>
        </g>
        <rect id="Rectangle_34" data-name="Rectangle 34" width="36" height="46" rx="10" transform="translate(510 126)" fill="none" stroke="#1b8cff" stroke-width="1"/>
        <rect id="Rectangle_35" data-name="Rectangle 35" width="36" height="10" transform="translate(510 144)" fill="none" stroke="#1b8cff" stroke-width="1"/>
        <path id="Path_143" data-name="Path 143" d="M523,172v8h10v-8" fill="none" stroke="#1b8cff" stroke-width="1"/>
        <path id="Path_144" data-name="Path 144" d="M536,183a3,3,0,0,0-3-3H523a3,3,0,0,0-3,3v3h16Z" fill="none" stroke="#1b8cff" stroke-width="1"/>
    </g>
</svg>
